<?xml version="1.0" encoding="utf-8"?>
<!-- Generator: Adobe Illustrator 22.1.0, SVG Export Plug-In . SVG Version: 6.00 Build 0)  -->
<svg version="1.1" id="Шар_1" xmlns="http://www.w3.org/2000/svg" xmlns:xlink="http://www.w3.org/1999/xlink" x="0px" y="0px"
	 viewBox="0 0 1244.4 700" style="enable-background:new 0 0 1244.4 700;" xml:space="preserve">
<style type="text/css">
	.st0{fill:#D91233;}
	.st1{fill:#FFFFFF;}
</style>
<g>
	<path class="st0" d="M165.9,385.6L84.4,273.1l-26.2-36.2l39.4,24.6l0,0c2.3,1.6,5.6,3.6,8.6,5.2c3.2,1.6,6.3,3.3,9.7,4.6
		c1.7,0.7,3.3,1.4,5,2.1l5.1,1.8c1.7,0.6,3.4,1.3,5.1,1.8l5.2,1.4l5.2,1.5c1.7,0.5,3.6,0.7,5.3,1.1c3.6,0.6,7.1,1.5,10.7,2
		c7.2,0.8,14.4,2,21.7,2c3.6,0.1,7.3,0.4,10.9,0.3l10.9-0.5c7.3,0,14.6-1.4,21.8-2.2l5.4-0.7c1.8-0.3,3.6-0.8,5.4-1.1l10.8-2.3
		c7.2-1.3,14.2-3.8,21.3-5.8l10.6-3.2l10.4-4l10.4-4l5.2-2l5.1-2.4l41.6-19.7c14.5-6.5,29.5-12,44.7-16.9
		c15.2-4.6,30.7-8.5,46.3-11.4c31.3-5.7,63-8.2,94.5-7.5c15.8,0.4,31.5,1.4,47.1,3.2c15.6,1.9,31.1,4.4,46.4,7.4
		c30.7,6.1,60.8,14.5,90.1,24.9c29.3,10.3,57.9,22.4,85.5,36.3c-29.7-8.5-59.4-16.7-89.2-23.7c-7.5-1.7-14.9-3.4-22.4-4.9
		c-7.5-1.6-14.9-3.1-22.4-4.6c-15-2.8-30-5.1-45-7.2c-30.1-4-60.2-6-90.3-5.9c-15,0.1-30,0.9-44.9,2.2c-14.9,1.4-29.7,3.7-44.3,6.5
		c-14.6,3-29,6.8-43.2,11c-14.1,4.6-28.1,9.7-41.7,15.8c-3.4,1.4-6.7,3.2-10.1,4.7c-3.4,1.6-6.5,3.2-10.3,4.9l-21.7,9.8l-5.4,2.5
		l-5.6,2.1l-11.2,4.1l-11.2,4.1c-3.8,1.1-7.7,2.2-11.6,3.3c-7.7,2.1-15.4,4.5-23.4,5.7l-11.9,2.2c-2,0.3-3.9,0.8-5.9,1l-6,0.6
		c-8.1,0.7-16,1.9-24.2,1.7l-12.1,0.1c-4-0.1-8.1-0.6-12.2-0.9c-8.1-0.4-16.1-2-24.1-3.3c-4-0.8-7.9-1.9-11.9-2.9
		c-2-0.6-4-0.9-5.9-1.6l-5.8-2l-5.8-2c-1.9-0.7-3.8-1.6-5.7-2.4l-5.6-2.4c-1.9-0.9-3.7-1.9-5.5-2.8c-3.7-1.8-7.2-4-10.7-6.2
		c-3.6-2.4-6.7-4.5-10.5-7.7l0,0l13.3-11.5L165.9,385.6z"/>
	<path class="st0" d="M511,282.5c14.1,3.7,28.3,6.2,42.7,8.4c14.3,2.1,28.7,3.8,43.1,4.9c28.8,2.3,57.7,3.4,86.6,3
		c28.9-0.4,57.7-2,86.4-4.8c28.7-2.8,57.2-6.8,85.7-11.2c28.9-4.4,58.3-7.9,87.8-8.6c14.8-0.6,29.6-0.3,44.4,0.4
		c14.8,0.9,29.7,2.3,44.4,4.6c29.4,4.8,58.8,12.9,85.4,27c6.7,3.4,13.1,7.4,19.3,11.4c6.2,4.1,12.1,8.7,17.8,13.4
		c11.5,9.4,21.4,20.1,31.6,30.6c-6.1-4-12.1-8.2-18.1-12.3c-6-4.1-12.1-8-18.2-11.7c-12.3-7.3-25.1-13.6-38.3-18.5
		c-26.4-10-54.2-15.2-82.3-17.9c-14.1-1.3-28.2-1.9-42.4-2.1c-7.1,0-14.2-0.1-21.3,0.1l-10.7,0.2l-10.7,0.4
		c-14.2,0.7-28.5,1.7-42.8,2.9l-21.4,2l-21.5,2.3c-29.2,3.1-58.4,4.8-87.7,5.6c-29.3,0.9-58.6,0.6-87.8-0.9
		c-29.2-1.5-58.4-4.1-87.2-8.8C567.1,298.4,538.3,292.5,511,282.5z"/>
	<path class="st1" d="M320.3,397.4c0,3.7-0.8,8.6-2.4,14.8c-1.3,4.8-2.6,9.6-3.9,14.4c-2.7,10-7.9,17.2-15.7,21.5
		c-5,2.8-11.3,4.2-18.9,4.2h-47l-12.4,46h-36.4L215,380.9h79.3c7.9,0,13.8,0.8,17.5,2.4C317.5,385.8,320.3,390.5,320.3,397.4z
		 M281.6,411.2h-38.3l-4.2,16.2h38.3L281.6,411.2z"/>
	<path class="st1" d="M445.3,394.7c0,2.5-0.5,5.6-1.5,9.3c-3.3,12.2-5.7,19.7-7.2,22.5c-3.6,6.5-9.7,10.8-18.4,12.9
		c7.7,2.4,11.6,7,11.6,13.9c0,2.2-0.3,4.5-1,6.9l-10.3,38.2h-36.4l12.9-48h-40.6l-12.9,48h-36.4l31.5-117.5h88.8
		C438.6,380.9,445.3,385.5,445.3,394.7z M405.5,411.2h-40.6l-4.6,17.1h40.6L405.5,411.2z"/>
	<path class="st1" d="M569.1,398.5c0,3.6-0.7,7.8-2,12.7l-14.9,55.5c-3.3,12.4-8.4,20.9-15.5,25.5c-6.3,4.1-16.1,6.2-29.4,6.2H467
		c-8.9,0-15.6-0.8-19.9-2.4c-6.9-2.6-10.3-7.6-10.3-15c0-3.8,0.8-8.5,2.3-14.2l14.9-55.5c3.2-11.9,8.4-20,15.7-24.5
		c6.3-3.9,15.9-5.9,28.9-5.9H539c8.9,0,15.6,0.8,19.9,2.4C565.7,386,569.1,391.1,569.1,398.5z M530.8,411.2h-40.5l-14.9,55.3h40.5
		L530.8,411.2z"/>
	<path class="st0" d="M773.6,380.9l-31.5,117.5h-36.4l12.6-47h-40.5l-12.6,47h-36.4l23.7-88.4c3-11.4,8.3-19.3,15.8-23.7
		c6.3-3.6,15.8-5.4,28.4-5.4H773.6z M729.4,409.9h-40.5l-4.7,17.9h40.5L729.4,409.9z"/>
	<path class="st0" d="M900.2,380.9l-23,85.7c-3.5,12.8-8.6,21.4-15.5,25.8c-6.1,4-16,6-29.9,6h-39.7c-11.1,0-19-1.2-23.7-3.8
		c-4.7-2.5-7-6.9-7-13.1c0-3.9,0.8-8.9,2.4-15l23-85.7h36.7l-23,85.7h39.7l23-85.7H900.2z"/>
	<path class="st0" d="M1018.7,380.9l-8.2,30.4h-35.9l-23.3,87.1h-36.9l23.3-87.1h-35.9l8.2-30.4H1018.7z"/>
	<path class="st0" d="M1135.1,398.5c0,3.6-0.7,7.8-2,12.7l-14.9,55.5c-3.3,12.4-8.4,20.9-15.5,25.5c-6.3,4.1-16.1,6.2-29.4,6.2
		h-40.5c-8.9,0-15.6-0.8-19.9-2.4c-6.9-2.6-10.3-7.6-10.3-15c0-3.8,0.8-8.5,2.3-14.2l14.9-55.5c3.2-11.9,8.4-20,15.7-24.5
		c6.3-3.9,15.9-5.9,28.9-5.9h40.5c8.9,0,15.6,0.8,19.9,2.4C1131.6,386,1135.1,391.1,1135.1,398.5z M1096.7,411.2h-40.5l-14.9,55.3
		h40.5L1096.7,411.2z"/>
</g>
</svg>
